<?xml version="1.0" encoding="utf-8"?>
<!-- Generator: Adobe Illustrator 25.2.3, SVG Export Plug-In . SVG Version: 6.00 Build 0)  -->
<svg version="1.1" id="Layer_1" xmlns="http://www.w3.org/2000/svg" xmlns:xlink="http://www.w3.org/1999/xlink" x="0px" y="0px"
	 viewBox="0 0 595.3 841.9" style="enable-background:new 0 0 595.3 841.9;" xml:space="preserve">
<style type="text/css">
	.st0{fill:#CAE3ED;}
	.st1{fill:#9ECADA;}
	.st2{fill:#6EB4CE;}
</style>
<rect x="-147.1" y="204" class="st0" width="52.2" height="52.2"/>
<rect x="-147.1" y="263.7" class="st1" width="52.2" height="52.2"/>
<rect x="-147.1" y="327.1" class="st2" width="52.2" height="52.2"/>
<path class="st0" d="M572.9,147.6c2.4-4.6,3.7-9.5,3.7-14.6c0-24.6-29.8-44.6-66.5-44.6c-26.9,0-50,10.7-60.5,26.1
	c-10.2-13.4-29.4-22.5-51.4-22.5c-20.3,0-38.3,7.7-48.9,19.5c-8.5-8.8-23.8-14.8-41.4-14.8c-20.5,0-38.1,8.1-45,19.4
	c-11.9-5.8-27.7-9.3-45.1-9.3c-25,0-46.8,7.3-58.2,18.1c-5-1.3-10.6-2-16.5-2c-11.6,0-22.1,2.7-29.4,7.1
	c-4.7-9.1-16.1-15.5-29.5-15.5c-17.5,0-31.8,11-31.8,24.5c0,2,0.3,3.9,0.9,5.7c-18.2,1.9-32,10.8-32,21.5c0,2.7,0.9,5.3,2.5,7.7
	c-8.9,4-15.1,12.8-15.1,23.2c0,14,11.4,25.4,25.5,25.4c8.7,0,16.4-4.3,21-11c2.4,1.3,5.1,2,7.8,2c7.4,0,14-5.2,17.9-13.2
	c6.7,2.7,14.3,4.2,22.5,4.2c9,0,17.4-1.9,24.6-5.1c4,1,8.3,1.6,12.8,1.6c7.9,0,15.3-1.7,21.3-4.6c3.9,2.9,9.5,4.6,15.7,4.6
	c5.1,0,9.9-1.2,13.6-3.3c7.5,7.8,19.2,12.8,32.4,12.8c16.2,0,30.2-7.6,36.9-18.6c1.9,0.4,3.8,0.7,5.8,0.7c9.3,0,17.6-4.9,22.9-12.5
	c4.1,1.7,8.8,2.7,13.8,2.7c6.7,0,12.8-1.7,17.5-4.5c4.4,8.6,12.4,14.4,21.6,14.4c7.8,0,14.7-4.2,19.3-10.7c3.2,2.8,7.5,4.5,12.2,4.5
	c4.3,0,8.3-1.4,11.3-3.7c-1.2,1.7-1.9,3.6-1.9,5.5c0,9.1,14.8,16.4,33.1,16.4c6.2,0,12-0.8,16.9-2.3c7.8,6.9,19.4,11.3,32.4,11.3
	c10.7,0,20.5-3,28-7.9c4.5,9.1,14.6,15.4,26.4,15.4c7.9,0,15-2.8,20.2-7.4c5.4,7.3,12.8,11.8,21,11.8c16.4,0,29.8-18.2,29.8-40.6
	C591.1,168.2,583.6,153.7,572.9,147.6z"/>
</svg>
