<?xml version="1.0" encoding="utf-8"?>
<!-- Generator: Adobe Illustrator 25.2.3, SVG Export Plug-In . SVG Version: 6.00 Build 0)  -->
<svg version="1.1" id="Layer_1" xmlns="http://www.w3.org/2000/svg" xmlns:xlink="http://www.w3.org/1999/xlink" x="0px" y="0px"
	 viewBox="0 0 595.3 199.4" style="enable-background:new 0 0 595.3 199.4;" xml:space="preserve">
<style type="text/css">
	.st0{fill:#FFFFFF;}
</style>
<path class="st0" d="M589.3,134c0-11.2-9.8-20.9-23.6-24.9c3.1-2.9,4.8-6.3,4.8-10c0-5.5-4-10.4-10.4-13.9
	c16.5-7.7,27.7-22.7,27.7-39.9c0-24.8-23.1-45-51.8-45.3l0,0H80.3l0,0c-0.2,0-0.3,0-0.5,0C58.2,0,40.7,14.7,40.7,32.8
	c0,11,6.4,20.7,16.3,26.6c-0.3,1.7-0.4,3.4-0.5,5.2c-1.9-0.2-3.9-0.4-5.9-0.4c-26,0-47,21.1-47,47s21.1,47,47,47
	c0.7,0,1.4,0,2.2-0.1c-1.4,3.3-2.2,6.8-2.2,10.6c0,16.9,15.9,30.7,35.6,30.7c8.3,0,16-2.5,22.1-6.6c1.4,0.1,2.7,0.2,4.1,0.2
	c10.2,0,19.7-2.6,27.5-7.1c3.9,1.5,8.4,2.4,13.1,2.4c12,0,22.3-5.6,26.6-13.7c0.7,0.1,1.4,0.1,2.2,0.1c6.6,0,12.4-3.5,16.3-8.9
	c2.2,0.3,4.5,0.4,6.9,0.4c5.3,0,10.4-0.7,14.7-1.9c4.4,4.6,10.7,7.5,17.6,7.5c7.5,0,14.1-3.3,18.6-8.6c5.8-0.5,11-2.8,15-6.5
	c3.6,1,7.4,1.6,11.4,1.6c5.6,0,11-1.1,15.7-3.2c4.3,3.5,9.4,6.2,14.9,7.7c10.4,12.1,25.8,19.8,43,19.8c11.8,0,22.7-3.6,31.8-9.8
	c4.9,5.8,15.1,9.8,26.8,9.8c7.7,0,14.7-1.7,20-4.5c7,8.9,18.5,14.8,31.4,14.8c7.7,0,14.9-2.1,20.9-5.6c5.2,5,11.5,8,18.2,8
	c3.4,0,6.8-0.8,9.9-2.2c5.6,3.9,13.2,6.3,21.6,6.3c17.4,0,31.5-10.4,31.5-23.2c0-6.2-3.3-11.8-8.6-16
	C576.6,157.5,589.3,146.8,589.3,134z"/>
</svg>
